<svg xmlns="http://www.w3.org/2000/svg" width="30" height="26" viewBox="0 0 30 26"><path fill="#F8D800" d="M13 24c-4.5 0-8.5-2.7-10.2-6.8-2.3-5.6.3-12.1 6-14.4 1-.4 2.1-.7 3.3-.8-2.1 3.5-2.5 7.8-.9 11.7s4.9 6.7 8.9 7.6c-.9.7-1.8 1.3-2.9 1.7-1.3.7-2.7 1-4.2 1z"/><path fill="#231F20" d="M10.3 3.4c-1.4 3.4-1.5 7.2 0 10.8 1.5 3.5 4.2 6.2 7.6 7.6-.3.2-.7.3-1 .5-1.3.4-2.6.7-3.9.7-4.1 0-7.7-2.4-9.2-6.2-1-2.5-1-5.2 0-7.7s2.9-4.4 5.4-5.4c.3-.1.7-.2 1.1-.3M13 1c-1.5 0-3.1.3-4.6.9-6.1 2.5-9 9.6-6.5 15.7C3.8 22.2 8.3 25 13 25c1.5 0 3.1-.3 4.6-.9 1.8-.8 3.4-1.9 4.6-3.3-4.3-.4-8.3-3.1-10.1-7.4-1.8-4.3-.9-9 1.9-12.4h-1z"/><g fill="none" stroke="#231F20" stroke-width="2" stroke-miterlimit="10"><path d="M23.2 1v12M17.2 7h12M18.9 11.2l8.5-8.4M27.4 11.2l-8.5-8.4"/></g></svg>